<svg xmlns="http://www.w3.org/2000/svg" width="230" height="118" viewBox="0 0 230 118">
    <path fill="#F2F2F2" fill-rule="evenodd" d="M0 55.903V42.736h.886c1.28 4.267 3.001 7.258 5.167 8.974 2.165 1.717 4.871 2.575 8.119 2.575 5.02 0 7.529-1.594 7.529-4.781 0-1.373-.615-2.403-1.845-3.09-1.92-1.079-4.38-1.912-7.382-2.5-3.346-.883-6.15-2.06-8.414-3.531C1.353 38.617 0 35.823 0 31.997c0-3.825 1.181-6.877 3.543-9.158 2.362-2.28 5.511-3.42 9.448-3.42 2.411 0 4.896.564 7.455 1.692.935.392 1.649.588 2.14.588.493 0 .911-.171 1.255-.515.345-.343.763-.98 1.255-1.912h.812v11.254h-.886c-2.51-6.375-6.397-9.562-11.662-9.562-2.313 0-4.035.404-5.167 1.213-1.132.81-1.697 1.827-1.697 3.053 0 .736.172 1.312.516 1.729.345.416.615.723.812.919.197.196.517.405.96.625.443.22.812.393 1.107.515.295.123.75.282 1.365.478.616.196 1.07.319 1.366.368 3.346.834 5.757 1.557 7.234 2.17a24.706 24.706 0 0 1 4.207 2.243c2.706 1.864 4.06 4.867 4.06 9.011 0 4.144-1.23 7.282-3.691 9.415-2.46 2.133-5.831 3.2-10.112 3.2-3.051 0-6.004-.711-8.858-2.133-.59-.392-1.058-.589-1.402-.589-1.083 0-2.14.908-3.174 2.722H0zM30.337 0h17.789v26.922c.787-2.256 1.993-4.07 3.617-5.443 1.624-1.374 4.084-2.06 7.38-2.06 7.628 0 11.442 4.095 11.442 12.284v22.14h4.133v1.324H53.81v-1.324h3.027V29.938c0-2.943-.197-4.843-.59-5.701-.394-.858-1.108-1.287-2.141-1.287-1.575 0-2.965 1.03-4.17 3.09-1.206 2.059-1.81 4.56-1.81 7.502v20.301H51.3v1.324H30.337v-1.324h4.06V1.324h-4.06V0zm63.184 37.882h2.14v-5.664c0-4.659-.258-7.785-.775-9.379-.517-1.593-1.513-2.39-2.99-2.39-.885 0-1.685.233-2.398.699-.714.465-1.07 1.103-1.07 1.912 0 .81.147 1.63.442 2.464h1.846c.393 1.03.59 2.268.59 3.715 0 1.446-.615 2.697-1.845 3.751-1.23 1.054-2.78 1.582-4.65 1.582-4.232 0-6.348-2.035-6.348-6.106 0-6.031 5.142-9.047 15.427-9.047 5.855 0 9.903.993 12.142 2.979 2.239 1.986 3.358 5.627 3.358 10.923v14.932c0 2.55.714 3.825 2.14 3.825 1.674 0 2.658-2.525 2.953-7.576l1.108.073c-.197 4.316-1.01 7.282-2.436 8.9-1.427 1.619-3.765 2.428-7.013 2.428-5.905 0-9.3-1.814-10.186-5.443-.64 1.863-1.599 3.236-2.878 4.119-1.28.883-3.15 1.324-5.61 1.324-7.283 0-10.924-2.967-10.924-8.9 0-3.482 1.39-5.873 4.17-7.172 2.78-1.3 7.05-1.95 12.807-1.95zm-2.953 9.047c0 2.55.135 4.193.406 4.928.27.736.787 1.104 1.55 1.104s1.476-.625 2.14-1.876c.665-1.25.997-2.979.997-5.186v-6.84h-.517c-3.05 0-4.576 2.23-4.576 6.693v1.177zm49.897 8.238v-1.324h3.396l-8.341-17.065-1.403.368v16.697h3.396v1.324h-21.184v-1.324h4.06V1.324h-4.356V0h18.084v35.675l1.181-.441 16.608-13.755h-6.938v-1.324h14.541v1.324h-5.167l-8.784 7.429 12.77 24.935h2.657v1.324h-20.52zm41.04.736c-6.348 0-11.109-1.63-14.283-4.891-3.174-3.261-4.76-7.797-4.76-13.608 0-5.811 1.783-10.262 5.35-13.351 3.569-3.09 8.108-4.634 13.62-4.634 11.17 0 16.533 5.59 16.09 16.77h-20.815v2.87c0 4.805.615 8.434 1.846 10.886 1.23 2.452 3.37 3.678 6.421 3.678 5.709 0 9.448-3.04 11.22-9.121l1.328.22c-.934 3.531-2.62 6.277-5.056 8.239-2.436 1.961-6.09 2.942-10.96 2.942zm-4.724-21.184h7.603v-3.605c0-3.972-.234-6.68-.701-8.128-.468-1.446-1.403-2.17-2.805-2.17-1.403 0-2.436.773-3.1 2.318-.665 1.544-.997 4.205-.997 7.98v3.605zm25.096 21.184V42.736h.886c1.28 4.267 3.002 7.258 5.167 8.974 2.165 1.717 4.872 2.575 8.12 2.575 5.019 0 7.528-1.594 7.528-4.781 0-1.373-.615-2.403-1.845-3.09-1.92-1.079-4.38-1.912-7.381-2.5-3.346-.883-6.151-2.06-8.415-3.531-2.706-1.766-4.06-4.56-4.06-8.386 0-3.825 1.181-6.877 3.543-9.158 2.362-2.28 5.512-3.42 9.448-3.42 2.412 0 4.897.564 7.455 1.692.935.392 1.649.588 2.141.588s.91-.171 1.255-.515c.344-.343.763-.98 1.255-1.912h.812v11.254h-.886c-2.51-6.375-6.397-9.562-11.663-9.562-2.312 0-4.035.404-5.166 1.213-1.132.81-1.698 1.827-1.698 3.053 0 .736.172 1.312.517 1.729.344.416.615.723.812.919.196.196.516.405.96.625.442.22.811.393 1.106.515.296.123.75.282 1.366.478.615.196 1.07.319 1.365.368 3.347.834 5.758 1.557 7.234 2.17a24.706 24.706 0 0 1 4.207 2.243c2.707 1.864 4.06 4.867 4.06 9.011 0 4.144-1.23 7.282-3.69 9.415-2.461 2.133-5.832 3.2-10.113 3.2-3.05 0-6.003-.711-8.857-2.133-.591-.392-1.058-.589-1.403-.589-1.082 0-2.14.908-3.174 2.722h-.886zM29.827 118l8.784-52.667h2.51l-1.402 8.607h.221c2.879-5.664 6.865-9.49 13.582-9.49 8.267 0 12.621 5.885 12.621 14.565 0 13.534-6.495 25.156-17.936 25.156-6.422 0-10.555-3.089-12.031-7.65h-.296L32.337 118h-2.51zm18.01-16.109c8.12 0 13.361-6.62 14.837-15.3l.665-4.045c.221-1.25.295-2.428.295-3.605 0-6.84-3.174-12.21-10.555-12.21-3.248 0-6.053.956-8.563 3.31-2.657 2.427-5.24 6.252-5.978 10.813l-1.772 10.445c-.886 5.149 2.51 10.592 11.072 10.592zm43.477 2.28c-9.227 0-14.246-5.664-14.246-16.403 0-12.799 7.971-23.317 19.56-23.317 7.455 0 12.18 3.457 12.18 9.341 0 5.002-3.249 12.21-29.157 12.726-.074.809-.074 1.765-.074 1.912 0 7.43 2.953 13.535 11.884 13.535 6.274 0 10.63-3.605 14.098-10.078l1.993 1.104c-4.133 7.576-9.152 11.18-16.238 11.18zm5.093-37.514c-7.898 0-14.69 5.811-16.24 15.962l-.294 1.913c22.217-.442 26.35-5.738 26.35-10.666 0-4.046-2.73-7.209-9.816-7.209zm38.907 37.514c-9.227 0-14.246-5.664-14.246-16.403 0-12.799 7.971-23.317 19.56-23.317 7.455 0 12.18 3.457 12.18 9.341 0 5.002-3.249 12.21-29.157 12.726-.074.809-.074 1.765-.074 1.912 0 7.43 2.953 13.535 11.884 13.535 6.274 0 10.63-3.605 14.098-10.078l1.993 1.104c-4.133 7.576-9.152 11.18-16.238 11.18zm5.093-37.514c-7.898 0-14.69 5.811-16.24 15.962l-.294 1.913c22.217-.442 26.35-5.738 26.35-10.666 0-4.046-2.73-7.209-9.816-7.209zm33.972 36.632h-2.51l5.98-35.749H165.3l.37-2.207h15.057l-1.181 7.283h.221c2.805-4.487 5.98-7.283 12.844-7.283h8.045l-.369 2.428h-8.193c-3.248 0-6.053.882-8.488 2.648-2.215 1.618-4.503 4.34-5.093 8.091l-4.134 24.789z"/>
</svg>
